{
  "accessors": [
    {
      "bufferView": 2,
      "componentType": 5126,
      "count": 1447,
      "max": [
        1.94771409034729,
        1.4340025186538696,
        4.903450965881348
      ],
      "min": [
        -1.94771409034729,
        -0.9225724339485168,
        -4.913818836212158
      ],
      "type": "VEC3"
    },
    {
      "bufferView": 2,
      "byteOffset": 17364,
      "componentType": 5126,
      "count": 1447,
      "max": [
        0.9999716877937317,
        1.0,
        0.9958398938179016
      ],
      "min": [
        -0.9999716877937317,
        -1.0,
        -1.0
      ],
      "type": "VEC3"
    },
    {
      "bufferView": 1,
      "componentType": 5126,
      "count": 1447,
      "max": [
        0.0,
        0.0
      ],
      "min": [
        0.0,
        0.0
      ],
      "type": "VEC2"
    },
    {
      "bufferView": 0,
      "componentType": 5125,
      "count": 4692,
      "type": "SCALAR"
    },
    {
      "bufferView": 2,
      "byteOffset": 34728,
      "componentType": 5126,
      "count": 697,
      "max": [
        1.940276861190796,
        0.12175346165895462,
        4.913527488708496
      ],
      "min": [
        -1.940276861190796,
        -1.007552981376648,
        -4.979942321777344
      ],
      "type": "VEC3"
    },
    {
      "bufferView": 2,
      "byteOffset": 43092,
      "componentType": 5126,
      "count": 697,
      "max": [
        1.0,
        0.9471007585525513,
        0.9999997615814209
      ],
      "min": [
        -1.0,
        -1.0,
        -1.0
      ],
      "type": "VEC3"
    },
    {
      "bufferView": 1,
      "byteOffset": 11576,
      "componentType": 5126,
      "count": 697,
      "max": [
        0.0,
        0.0
      ],
      "min": [
        0.0,
        0.0
      ],
      "type": "VEC2"
    },
    {
      "bufferView": 0,
      "byteOffset": 18768,
      "componentType": 5125,
      "count": 2412,
      "type": "SCALAR"
    },
    {
      "bufferView": 2,
      "byteOffset": 51456,
      "componentType": 5126,
      "count": 528,
      "max": [
        1.445877194404602,
        -0.6761201620101929,
        -3.886950969696045
      ],
      "min": [
        -1.445877194404602,
        -0.852827787399292,
        -4.869667053222656
      ],
      "type": "VEC3"
    },
    {
      "bufferView": 2,
      "byteOffset": 57792,
      "componentType": 5126,
      "count": 528,
      "max": [
        1.0,
        1.0,
        1.0
      ],
      "min": [
        -1.0,
        -1.0,
        -0.6623746752738953
      ],
      "type": "VEC3"
    },
    {
      "bufferView": 1,
      "byteOffset": 17152,
      "componentType": 5126,
      "count": 528,
      "max": [
        0.0,
        0.0
      ],
      "min": [
        0.0,
        0.0
      ],
      "type": "VEC2"
    },
    {
      "bufferView": 0,
      "byteOffset": 28416,
      "componentType": 5125,
      "count": 1560,
      "type": "SCALAR"
    },
    {
      "bufferView": 2,
      "byteOffset": 64128,
      "componentType": 5126,
      "count": 176,
      "max": [
        1.5778069496154785,
        0.48751741647720337,
        -4.3092145919799805
      ],
      "min": [
        -1.5778069496154785,
        0.14486147463321686,
        -4.709939956665039
      ],
      "type": "VEC3"
    },
    {
      "bufferView": 2,
      "byteOffset": 66240,
      "componentType": 5126,
      "count": 176,
      "max": [
        0.9529569745063782,
        0.9749917984008789,
        0.9464107751846313
      ],
      "min": [
        -0.9529573917388916,
        -0.9754496216773987,
        -0.9464109539985657
      ],
      "type": "VEC3"
    },
    {
      "bufferView": 1,
      "byteOffset": 21376,
      "componentType": 5126,
      "count": 176,
      "max": [
        0.0,
        0.0
      ],
      "min": [
        0.0,
        0.0
      ],
      "type": "VEC2"
    },
    {
      "bufferView": 0,
      "byteOffset": 34656,
      "componentType": 5125,
      "count": 624,
      "type": "SCALAR"
    },
    {
      "bufferView": 2,
      "byteOffset": 68352,
      "componentType": 5126,
      "count": 144,
      "max": [
        1.4734387397766113,
        0.45623910427093506,
        -4.380581855773926
      ],
      "min": [
        -1.4734387397766113,
        0.1662682443857193,
        -4.671037197113037
      ],
      "type": "VEC3"
    },
    {
      "bufferView": 2,
      "byteOffset": 70080,
      "componentType": 5126,
      "count": 144,
      "max": [
        0.8607535362243652,
        0.8292985558509827,
        0.5498829483985901
      ],
      "min": [
        -0.8607534170150757,
        -0.910308301448822,
        -0.9318728446960449
      ],
      "type": "VEC3"
    },
    {
      "bufferView": 1,
      "byteOffset": 22784,
      "componentType": 5126,
      "count": 144,
      "max": [
        0.0,
        0.0
      ],
      "min": [
        0.0,
        0.0
      ],
      "type": "VEC2"
    },
    {
      "bufferView": 0,
      "byteOffset": 37152,
      "componentType": 5125,
      "count": 288,
      "type": "SCALAR"
    },
    {
      "bufferView": 2,
      "byteOffset": 71808,
      "componentType": 5126,
      "count": 30,
      "max": [
        1.8595049381256104,
        0.14315426349639893,
        4.565424919128418
      ],
      "min": [
        -1.8595049381256104,
        -0.07865658402442932,
        3.4525039196014404
      ],
      "type": "VEC3"
    },
    {
      "bufferView": 2,
      "byteOffset": 72168,
      "componentType": 5126,
      "count": 30,
      "max": [
        0.947309672832489,
        0.18101650476455688,
        -0.29182830452919006
      ],
      "min": [
        -0.9473096132278442,
        -0.14836880564689636,
        -0.76991206407547
      ],
      "type": "VEC3"
    },
    {
      "bufferView": 1,
      "byteOffset": 23936,
      "componentType": 5126,
      "count": 30,
      "max": [
        0.0,
        0.0
      ],
      "min": [
        0.0,
        0.0
      ],
      "type": "VEC2"
    },
    {
      "bufferView": 0,
      "byteOffset": 38304,
      "componentType": 5125,
      "count": 96,
      "type": "SCALAR"
    },
    {
      "bufferView": 2,
      "byteOffset": 72528,
      "componentType": 5126,
      "count": 78,
      "max": [
        1.8595049381256104,
        0.14315426349639893,
        4.565424919128418
      ],
      "min": [
        -1.8595049381256104,
        -0.07865658402442932,
        3.2568695545196533
      ],
      "type": "VEC3"
    },
    {
      "bufferView": 2,
      "byteOffset": 73464,
      "componentType": 5126,
      "count": 78,
      "max": [
        0.9763314127922058,
        0.999285101890564,
        0.7699113488197327
      ],
      "min": [
        -0.9763314127922058,
        -0.9997532963752747,
        -0.04085931554436684
      ],
      "type": "VEC3"
    },
    {
      "bufferView": 1,
      "byteOffset": 24176,
      "componentType": 5126,
      "count": 78,
      "max": [
        0.0,
        0.0
      ],
      "min": [
        0.0,
        0.0
      ],
      "type": "VEC2"
    },
    {
      "bufferView": 0,
      "byteOffset": 38688,
      "componentType": 5125,
      "count": 240,
      "type": "SCALAR"
    },
    {
      "bufferView": 2,
      "byteOffset": 74400,
      "componentType": 5126,
      "count": 432,
      "max": [
        1.767784833908081,
        0.11477978527545929,
        4.303709506988525
      ],
      "min": [
        -1.767784833908081,
        -0.05121723189949989,
        3.6903021335601807
      ],
      "type": "VEC3"
    },
    {
      "bufferView": 2,
      "byteOffset": 79584,
      "componentType": 5126,
      "count": 432,
      "max": [
        1.0,
        0.9994686841964722,
        0.8792759776115417
      ],
      "min": [
        -1.0,
        -0.9994686841964722,
        -0.8792759776115417
      ],
      "type": "VEC3"
    },
    {
      "bufferView": 1,
      "byteOffset": 24800,
      "componentType": 5126,
      "count": 432,
      "max": [
        0.875,
        1.0
      ],
      "min": [
        0.125,
        0.0
      ],
      "type": "VEC2"
    },
    {
      "bufferView": 0,
      "byteOffset": 39648,
      "componentType": 5125,
      "count": 720,
      "type": "SCALAR"
    },
    {
      "bufferView": 2,
      "byteOffset": 84768,
      "componentType": 5126,
      "count": 152,
      "max": [
        1.5853763818740845,
        1.249068260192871,
        1.7880830764770508
      ],
      "min": [
        -1.5853763818740845,
        0.5884569883346558,
        -3.6444740295410156
      ],
      "type": "VEC3"
    },
    {
      "bufferView": 2,
      "byteOffset": 86592,
      "componentType": 5126,
      "count": 152,
      "max": [
        0.8986920118331909,
        0.9782687425613403,
        0.44968897104263306
      ],
      "min": [
        -0.8986920118331909,
        0.43748366832733154,
        -0.28813156485557556
      ],
      "type": "VEC3"
    },
    {
      "bufferView": 1,
      "byteOffset": 28256,
      "componentType": 5126,
      "count": 152,
      "max": [
        0.0,
        0.0
      ],
      "min": [
        0.0,
        0.0
      ],
      "type": "VEC2"
    },
    {
      "bufferView": 0,
      "byteOffset": 42528,
      "componentType": 5125,
      "count": 564,
      "type": "SCALAR"
    },
    {
      "bufferView": 2,
      "byteOffset": 88416,
      "componentType": 5126,
      "count": 244,
      "max": [
        1.6259756088256836,
        1.3006113767623901,
        1.8569179773330688
      ],
      "min": [
        -1.6259756088256836,
        0.588319718837738,
        -3.7208218574523926
      ],
      "type": "VEC3"
    },
    {
      "bufferView": 2,
      "byteOffset": 91344,
      "componentType": 5126,
      "count": 244,
      "max": [
        0.9880855083465576,
        0.9999822974205017,
        0.9157111644744873
      ],
      "min": [
        -0.9880855083465576,
        -0.36316245794296265,
        -0.9951227903366089
      ],
      "type": "VEC3"
    },
    {
      "bufferView": 1,
      "byteOffset": 29472,
      "componentType": 5126,
      "count": 244,
      "max": [
        0.0,
        0.0
      ],
      "min": [
        0.0,
        0.0
      ],
      "type": "VEC2"
    },
    {
      "bufferView": 0,
      "byteOffset": 44784,
      "componentType": 5125,
      "count": 732,
      "type": "SCALAR"
    },
    {
      "bufferView": 2,
      "byteOffset": 94272,
      "componentType": 5126,
      "count": 278,
      "max": [
        1.8187685012817383,
        -1.9835784435272217,
        0.9067256450653076
      ],
      "min": [
        -1.8187685012817383,
        -2.8143179416656494,
        -0.11392346024513245
      ],
      "type": "VEC3"
    },
    {
      "bufferView": 2,
      "byteOffset": 97608,
      "componentType": 5126,
      "count": 278,
      "max": [
        0.7267320156097412,
        1.0,
        0.09478598088026047
      ],
      "min": [
        -0.7267299890518188,
        0.6837108731269836,
        -0.1879711002111435
      ],
      "type": "VEC3"
    },
    {
      "bufferView": 1,
      "byteOffset": 31424,
      "componentType": 5126,
      "count": 278,
      "max": [
        1.0000001192092896,
        1.0000001192092896
      ],
      "min": [
        0.4999999701976776,
        0.0
      ],
      "type": "VEC2"
    },
    {
      "bufferView": 0,
      "byteOffset": 47712,
      "componentType": 5125,
      "count": 1200,
      "type": "SCALAR"
    },
    {
      "bufferView": 2,
      "byteOffset": 100944,
      "componentType": 5126,
      "count": 288,
      "max": [
        1.9523237943649292,
        0.00469517707824707,
        1.0341873168945313
      ],
      "min": [
        -1.8278053998947144,
        -0.7687329053878784,
        -1.0341873168945313
      ],
      "type": "VEC3"
    },
    {
      "bufferView": 2,
      "byteOffset": 104400,
      "componentType": 5126,
      "count": 288,
      "max": [
        1.0,
        1.0,
        0.8321079611778259
      ],
      "min": [
        -1.0,
        -1.0,
        -0.8321079611778259
      ],
      "type": "VEC3"
    },
    {
      "bufferView": 1,
      "byteOffset": 33648,
      "componentType": 5126,
      "count": 288,
      "max": [
        0.0,
        0.0
      ],
      "min": [
        0.0,
        0.0
      ],
      "type": "VEC2"
    },
    {
      "bufferView": 0,
      "byteOffset": 52512,
      "componentType": 5125,
      "count": 864,
      "type": "SCALAR"
    },
    {
      "bufferView": 2,
      "byteOffset": 107856,
      "componentType": 5126,
      "count": 1776,
      "max": [
        1.885748028755188,
        -0.06188070774078369,
        1.0341873168945313
      ],
      "min": [
        -1.7612296342849731,
        -0.7021571397781372,
        -1.0341873168945313
      ],
      "type": "VEC3"
    },
    {
      "bufferView": 2,
      "byteOffset": 129168,
      "componentType": 5126,
      "count": 1776,
      "max": [
        0.9999766945838928,
        0.999976634979248,
        1.0
      ],
      "min": [
        -0.999976634979248,
        -0.999976634979248,
        -1.0
      ],
      "type": "VEC3"
    },
    {
      "bufferView": 1,
      "byteOffset": 35952,
      "componentType": 5126,
      "count": 1776,
      "max": [
        0.0,
        0.0
      ],
      "min": [
        0.0,
        0.0
      ],
      "type": "VEC2"
    },
    {
      "bufferView": 0,
      "byteOffset": 55968,
      "componentType": 5125,
      "count": 4272,
      "type": "SCALAR"
    }
  ],
  "asset": {
    "extras": {
      "author": "Legendeniuss (https://sketchfab.com/Legendeniuss)",
      "license": "CC-BY-4.0 (http://creativecommons.org/licenses/by/4.0/)",
      "source": "https://sketchfab.com/3d-models/2024-ford-mustang-gt-low-poly-1592c80ca5cc4027a2a72a6fad784e1b",
      "title": "2024 Ford Mustang GT (Low Poly)"
    },
    "generator": "Sketchfab-14.52.0",
    "version": "2.0"
  },
  "bufferViews": [
    {
      "buffer": 0,
      "byteLength": 73056,
      "name": "floatBufferViews",
      "target": 34963
    },
    {
      "buffer": 0,
      "byteLength": 50160,
      "byteOffset": 73056,
      "byteStride": 8,
      "name": "floatBufferViews",
      "target": 34962
    },
    {
      "buffer": 0,
      "byteLength": 150480,
      "byteOffset": 123216,
      "byteStride": 12,
      "name": "floatBufferViews",
      "target": 34962
    }
  ],
  "buffers": [
    {
      "byteLength": 273696,
      "uri": "scene.bin"
    }
  ],
  "extensionsUsed": [
    "KHR_materials_clearcoat"
  ],
  "materials": [
    {
      "doubleSided": true,
      "extensions": {
        "KHR_materials_clearcoat": {
          "clearcoatFactor": 1.0,
          "clearcoatRoughnessFactor": 0.04
        }
      },
      "name": "Material.001",
      "pbrMetallicRoughness": {
        "baseColorFactor": [
          0.217219,
          0.24945,
          0.322447,
          1.0
        ],
        "roughnessFactor": 0.5
      }
    },
    {
      "doubleSided": true,
      "name": "Material.008",
      "pbrMetallicRoughness": {
        "baseColorFactor": [
          0.0,
          0.0,
          0.0,
          1.0
        ],
        "metallicFactor": 0.0
      }
    },
    {
      "doubleSided": true,
      "extensions": {
        "KHR_materials_clearcoat": {
          "clearcoatFactor": 1.0,
          "clearcoatRoughnessFactor": 0.04
        }
      },
      "name": "Material.007",
      "pbrMetallicRoughness": {
        "baseColorFactor": [
          0.570475,
          0.570475,
          0.570475,
          1.0
        ],
        "roughnessFactor": 0.4
      }
    },
    {
      "doubleSided": true,
      "emissiveFactor": [
        1.0,
        0.0,
        0.0831454000000001
      ],
      "name": "Material.002"
    },
    {
      "alphaMode": "BLEND",
      "doubleSided": true,
      "extensions": {
        "KHR_materials_clearcoat": {
          "clearcoatFactor": 1.0,
          "clearcoatRoughnessFactor": 0.04
        }
      },
      "name": "Material.005",
      "pbrMetallicRoughness": {
        "baseColorFactor": [
          0.0,
          0.0,
          0.0,
          0.18133388596993819
        ],
        "metallicFactor": 0.0,
        "roughnessFactor": 0.0
      }
    },
    {
      "doubleSided": true,
      "emissiveFactor": [
        1.0,
        1.0,
        1.0
      ],
      "name": "Material.006"
    },
    {
      "doubleSided": true,
      "name": "Material.003",
      "pbrMetallicRoughness": {
        "baseColorFactor": [
          0.0,
          0.0,
          0.0,
          1.0
        ],
        "metallicFactor": 0.0,
        "roughnessFactor": 0.0
      }
    }
  ],
  "meshes": [
    {
      "name": "Object_0",
      "primitives": [
        {
          "attributes": {
            "NORMAL": 1,
            "POSITION": 0,
            "TEXCOORD_0": 2
          },
          "indices": 3,
          "material": 0,
          "mode": 4
        }
      ]
    },
    {
      "name": "Object_1",
      "primitives": [
        {
          "attributes": {
            "NORMAL": 5,
            "POSITION": 4,
            "TEXCOORD_0": 6
          },
          "indices": 7,
          "material": 1,
          "mode": 4
        }
      ]
    },
    {
      "name": "Object_2",
      "primitives": [
        {
          "attributes": {
            "NORMAL": 9,
            "POSITION": 8,
            "TEXCOORD_0": 10
          },
          "indices": 11,
          "material": 2,
          "mode": 4
        }
      ]
    },
    {
      "name": "Object_3",
      "primitives": [
        {
          "attributes": {
            "NORMAL": 13,
            "POSITION": 12,
            "TEXCOORD_0": 14
          },
          "indices": 15,
          "material": 1,
          "mode": 4
        }
      ]
    },
    {
      "name": "Object_4",
      "primitives": [
        {
          "attributes": {
            "NORMAL": 17,
            "POSITION": 16,
            "TEXCOORD_0": 18
          },
          "indices": 19,
          "material": 3,
          "mode": 4
        }
      ]
    },
    {
      "name": "Object_5",
      "primitives": [
        {
          "attributes": {
            "NORMAL": 21,
            "POSITION": 20,
            "TEXCOORD_0": 22
          },
          "indices": 23,
          "material": 4,
          "mode": 4
        }
      ]
    },
    {
      "name": "Object_6",
      "primitives": [
        {
          "attributes": {
            "NORMAL": 25,
            "POSITION": 24,
            "TEXCOORD_0": 26
          },
          "indices": 27,
          "material": 1,
          "mode": 4
        }
      ]
    },
    {
      "name": "Object_7",
      "primitives": [
        {
          "attributes": {
            "NORMAL": 29,
            "POSITION": 28,
            "TEXCOORD_0": 30
          },
          "indices": 31,
          "material": 5,
          "mode": 4
        }
      ]
    },
    {
      "name": "Object_8",
      "primitives": [
        {
          "attributes": {
            "NORMAL": 33,
            "POSITION": 32,
            "TEXCOORD_0": 34
          },
          "indices": 35,
          "material": 6,
          "mode": 4
        }
      ]
    },
    {
      "name": "Object_9",
      "primitives": [
        {
          "attributes": {
            "NORMAL": 37,
            "POSITION": 36,
            "TEXCOORD_0": 38
          },
          "indices": 39,
          "material": 1,
          "mode": 4
        }
      ]
    },
    {
      "name": "Object_10",
      "primitives": [
        {
          "attributes": {
            "NORMAL": 41,
            "POSITION": 40,
            "TEXCOORD_0": 42
          },
          "indices": 43,
          "material": 1,
          "mode": 4
        }
      ]
    },
    {
      "name": "Object_11",
      "primitives": [
        {
          "attributes": {
            "NORMAL": 45,
            "POSITION": 44,
            "TEXCOORD_0": 46
          },
          "indices": 47,
          "material": 1,
          "mode": 4
        }
      ]
    },
    {
      "name": "Object_12",
      "primitives": [
        {
          "attributes": {
            "NORMAL": 49,
            "POSITION": 48,
            "TEXCOORD_0": 50
          },
          "indices": 51,
          "material": 2,
          "mode": 4
        }
      ]
    }
  ],
  "nodes": [
    {
      "children": [
        1
      ],
      "matrix": [
        1.0,
        0.0,
        0.0,
        0.0,
        0.0,
        2.220446049250313e-16,
        -1.0,
        0.0,
        0.0,
        1.0,
        2.220446049250313e-16,
        0.0,
        0.0,
        0.0,
        0.0,
        1.0
      ],
      "name": "Sketchfab_model"
    },
    {
      "children": [
        2
      ],
      "name": "root"
    },
    {
      "children": [
        3,
        7,
        10,
        14,
        17,
        19
      ],
      "matrix": [
        1.0,
        0.0,
        0.0,
        0.0,
        0.0,
        2.220446049250313e-16,
        1.0,
        0.0,
        0.0,
        -1.0,
        2.220446049250313e-16,
        0.0,
        0.0,
        0.0,
        0.0,
        1.0
      ],
      "name": "GLTF_SceneRootNode"
    },
    {
      "children": [
        4,
        5,
        6
      ],
      "name": "Plane_5"
    },
    {
      "mesh": 0,
      "name": "Object_4"
    },
    {
      "mesh": 1,
      "name": "Object_5"
    },
    {
      "mesh": 2,
      "name": "Object_6"
    },
    {
      "children": [
        8,
        9
      ],
      "name": "Plane.001_6"
    },
    {
      "mesh": 3,
      "name": "Object_8"
    },
    {
      "mesh": 4,
      "name": "Object_9"
    },
    {
      "children": [
        11,
        12,
        13
      ],
      "name": "Plane.002_7"
    },
    {
      "mesh": 5,
      "name": "Object_11"
    },
    {
      "mesh": 6,
      "name": "Object_12"
    },
    {
      "mesh": 7,
      "name": "Object_13"
    },
    {
      "children": [
        15,
        16
      ],
      "name": "Plane.003_8"
    },
    {
      "mesh": 8,
      "name": "Object_15"
    },
    {
      "mesh": 9,
      "name": "Object_16"
    },
    {
      "children": [
        18
      ],
      "matrix": [
        1.0,
        0.0,
        0.0,
        0.0,
        0.0,
        0.0,
        1.0,
        0.0,
        0.0,
        -1.0,
        0.0,
        0.0,
        0.0,
        0.0,
        6.758757591247559,
        1.0
      ],
      "name": "Plane.004_9"
    },
    {
      "mesh": 10,
      "name": "Object_18"
    },
    {
      "children": [
        20,
        21
      ],
      "matrix": [
        9.458131022076726e-07,
        0.0,
        1.8700747489926806,
        0.0,
        0.0,
        1.87007474899292,
        0.0,
        0.0,
        -1.8700747489926806,
        0.0,
        9.458131022076726e-07,
        0.0,
        0.0,
        0.0,
        0.0,
        1.0
      ],
      "name": "Circle.001_10"
    },
    {
      "mesh": 11,
      "name": "Object_20"
    },
    {
      "mesh": 12,
      "name": "Object_21"
    }
  ],
  "scene": 0,
  "scenes": [
    {
      "name": "Sketchfab_Scene",
      "nodes": [
        0
      ]
    }
  ]
}
